<svg xmlns="http://www.w3.org/2000/svg" xmlns:xlink="http://www.w3.org/1999/xlink" width="358pt" height="332pt" viewBox="0 0 357.67 332"><g id="graph0" class="graph" transform="scale(1 1) rotate(0) translate(4 328)"><title>Data Science Process</title><polygon fill="#fff" stroke="transparent" points="-4 4 -4 -328 353.67 -328 353.67 4 -4 4"/><g id="node1" class="node"><title>A</title><ellipse cx="174.83" cy="-306" fill="none" stroke="#000" rx="51.99" ry="18"/><text x="174.83" y="-302.3" font-family="Times,serif" font-size="14" text-anchor="middle">Get Data</text></g><g id="node2" class="node"><title>B</title><ellipse cx="174.83" cy="-234" fill="none" stroke="#000" rx="174.67" ry="18"/><text x="174.83" y="-230.3" font-family="Times,serif" font-size="14" text-anchor="middle">Clean, Prepare, &amp; Manipulate Data</text></g><g id="edge1" class="edge"><title>A--B</title><path fill="none" stroke="#000" d="M174.83,-287.7C174.83,-276.85 174.83,-262.92 174.83,-252.1"/></g><g id="node3" class="node"><title>C</title><ellipse cx="174.83" cy="-162" fill="none" stroke="#000" rx="66.89" ry="18"/><text x="174.83" y="-158.3" font-family="Times,serif" font-size="14" text-anchor="middle">Train Model</text></g><g id="edge2" class="edge"><title>B--C</title><path fill="none" stroke="#000" d="M174.83,-215.7C174.83,-204.85 174.83,-190.92 174.83,-180.1"/></g><g id="node4" class="node"><title>D</title><ellipse cx="174.83" cy="-90" fill="none" stroke="#000" rx="55.49" ry="18"/><text x="174.83" y="-86.3" font-family="Times,serif" font-size="14" text-anchor="middle">Test Data</text></g><g id="edge3" class="edge"><title>C--D</title><path fill="none" stroke="#000" d="M174.83,-143.7C174.83,-132.85 174.83,-118.92 174.83,-108.1"/></g><g id="node5" class="node"><title>E</title><ellipse cx="174.83" cy="-18" fill="none" stroke="#000" rx="49.29" ry="18"/><text x="174.83" y="-14.3" font-family="Times,serif" font-size="14" text-anchor="middle">Improve</text></g><g id="edge4" class="edge"><title>D--E</title><path fill="none" stroke="#000" d="M174.83,-71.7C174.83,-60.85 174.83,-46.92 174.83,-36.1"/></g></g></svg>